<svg xmlns="http://www.w3.org/2000/svg" viewBox="0 0 300 300">
  <defs>
    <style>
      .cls-1 {
        fill: #e3f7fc;
      }

      .cls-2 {
        fill: none;
        stroke: #319ee8;
        stroke-miterlimit: 10;
        stroke-width: 25px;
      }

      .cls-3 {
        fill: red;
      }

      .cls-4 {
        fill: #a007a0;
      }
    </style>
  </defs>
  <title>rogers_brendan_icons</title>
  <g id="Icon5">
    <circle id="background5" class="cls-1" cx="151.5" cy="149.5" r="121.5"/>
    <circle id="border5" class="cls-2" cx="149.5" cy="149.5" r="121.5"/>
    <path id="noteRed" class="cls-3" d="M169.42,153.76s-9.65-9.07-23.54.28c-14.36,9.67-9.37,19.72.81,21.24,0,0,10.77,2.46,17-3.41s7.67-8.76,7.67-8.76l15.15-66.17s20.79,15.29,17.62,29.14-6.71,18.7-13,28.59c0,0,13.76-10.61,16.51-26.17s-9.33-27.81-11.42-35c-2.26-7.81-3.44-9.7-6.6-24.19Z"/>
    <path id="notePurple" class="cls-4" d="M144.31,187.5s-17-9.48-34,7.83c-17.57,17.89-7,30.19,8.2,29.07,0,0,16.4,0,23.43-10.06s8.2-14.54,8.2-14.54V103.62s35.14,14.54,35.14,34.67-3.51,28-9.37,43.62c0,0,16.4-19,15.23-41.38s-22.72-35.46-28.11-44.74c-5.86-10.06-8.2-12.3-17.58-31.31Z"/>
  </g>
</svg>
