<svg xmlns="http://www.w3.org/2000/svg" viewBox="0 0 300 300"><defs><style>.cls-1{fill:#e3f7fc;}.cls-2{fill:none;stroke:#319ee8;stroke-miterlimit:10;stroke-width:25px;}.cls-3{fill:red;}.cls-4{fill:#a007a0;}</style></defs><title>rogers_brendan_icons</title><g id="Icon5"><circle id="background5" class="cls-1" cx="151.5" cy="149.5" r="121.5"/><circle id="border5" class="cls-2" cx="149.5" cy="149.5" r="121.5"/><path id="noteRed" class="cls-3" d="M171.17,154.81s-11.44-6.69-22.89,5.52c-11.84,12.63-4.74,21.31,5.52,20.52,0,0,11,0,15.78-7.1s5.52-10.26,5.52-10.26V95.62s23.68,10.26,23.68,24.47-2.37,19.73-6.31,30.78c0,0,11-13.42,10.26-29.2s-15.31-25-18.94-31.57C179.85,83,178.27,81.42,172,68Z"/><path id="notePurple" class="cls-4" d="M144.31,187.5s-17-9.48-34,7.83c-17.57,17.89-7,30.2,8.2,29.08,0,0,16.4,0,23.43-10.07s8.2-14.54,8.2-14.54V103.62s35.15,14.54,35.15,34.67-3.51,28-9.37,43.62c0,0,16.4-19,15.23-41.38s-22.72-35.46-28.12-44.73c-5.86-10.07-8.2-12.3-17.57-31.31Z"/></g></svg>