<svg xmlns="http://www.w3.org/2000/svg" viewBox="0 0 300 300">
  <defs>
    <style>
      .cls-1 {
        fill: #e3f7fc;
      }

      .cls-2 {
        fill: none;
        stroke: #319ee8;
        stroke-miterlimit: 10;
        stroke-width: 25px;
      }

      .cls-3 {
        fill: #a007a0;
      }

      .cls-4 {
        fill: #d60000;
      }
    </style>
  </defs>
  <title>rogers_brendan_icons</title>
  <g id="Icon9">
    <circle id="background9" class="cls-1" cx="148.5" cy="151.5" r="121.5"/>
    <circle id="border9" class="cls-2" cx="150.5" cy="149.5" r="121.5"/>
    <path id="burst2" class="cls-3" d="M129.23,168.72s65.27-27,62.19,3.89-63,.63-63,.63,39.1,57.93,7.41,64.16c-31.35,6.16-11.93-65-11.93-65s-53.76,27.85-53.15-2.31c.69-33.33,53.94-2.21,53.94-2.21S92.94,110,122.37,108.14C155.7,106.06,129.23,168.72,129.23,168.72Z"/>
    <path id="burst1" class="cls-4" d="M165.72,130.3s71,32.91,43.53,53.61-47.81-50.86-47.81-50.86-17.86,75.37-46.73,54.22c-28.57-20.93,44-58.5,44-58.5s-63.08-22.91-38-45.05C148.34,59.24,163,126,163,126s23.37-69.42,47-46.81C236.66,104.81,165.72,130.3,165.72,130.3Z"/>
  </g>
</svg>
